<svg width="126" height="26" viewBox="0 0 126 26" version="1.1" xmlns="http://www.w3.org/2000/svg" xmlns:xlink="http://www.w3.org/1999/xlink">
<title>Unleash_logo</title>
<desc>Created using Figma</desc>
<g id="Canvas" transform="translate(-951 247)">
<g id="Unleash_logo">
<g id="0 UNLEASH">
<g id="3 black">
<use xlink:href="#path0_fill" transform="translate(951 -247)" fill="#110C11"/>
</g>
</g>
</g>
</g>
<defs>
<path id="path0_fill" d="M 42.7915 18.4961C 42.4892 18.6003 42.1617 18.7046 41.7082 18.8088C 41.2547 18.913 40.8453 19.0111 40.3792 19.103C 39.8987 19.2024 39.413 19.276 38.9243 19.3237C 38.437 19.3773 37.9471 19.4039 37.4567 19.4034C 36.5809 19.4069 35.7064 19.3371 34.8429 19.195C 34.0554 19.0768 33.3046 18.7899 32.6447 18.3551C 31.9789 17.8883 31.4581 17.252 31.1394 16.5159C 30.7247 15.4884 30.5338 14.3882 30.5789 13.2851L 30.5789 5.70149C 30.9609 5.61685 31.3479 5.55542 31.7378 5.51757C 32.1535 5.51757 32.4873 5.46852 32.8463 5.46852C 33.2053 5.46852 33.5454 5.46852 33.9359 5.51757C 34.3219 5.55346 34.7049 5.61491 35.0822 5.70149L 35.0822 12.9172C 35.0024 13.6653 35.1916 14.4171 35.6176 15.0446C 35.8311 15.2468 36.0865 15.4023 36.3668 15.5006C 36.647 15.5989 36.9456 15.6378 37.2426 15.6147C 37.4734 15.6267 37.7046 15.6267 37.9354 15.6147C 38.052 15.604 38.1678 15.5855 38.2818 15.5595L 38.2818 5.70149C 38.666 5.61683 39.0551 5.55541 39.447 5.51757C 39.8249 5.48691 40.1966 5.46852 40.5493 5.46852C 40.902 5.46852 41.2547 5.46852 41.6452 5.51757C 42.0311 5.55394 42.414 5.61538 42.7915 5.70149L 42.7915 18.4961ZM 51.3763 5.444C 52.1617 5.44232 52.9457 5.50797 53.7193 5.64018C 54.4791 5.75902 55.2034 6.03724 55.8418 6.45555C 56.5076 6.9113 57.0395 7.52837 57.385 8.2457C 57.833 9.20715 58.0484 10.2558 58.0148 11.311L 58.0148 19.0908C 57.5987 19.172 57.1781 19.2293 56.7551 19.2624C 56.3772 19.2624 56.0497 19.2992 55.7663 19.2992C 55.4828 19.2992 55.1364 19.2992 54.7522 19.2624C 54.3292 19.2297 53.9085 19.1724 53.4925 19.0908L 53.4925 11.8015C 53.5581 11.0942 53.3615 10.3874 52.9383 9.80901C 52.7312 9.59568 52.478 9.42997 52.1969 9.32392C 51.9158 9.21786 51.6139 9.17415 51.3133 9.19594C 51.1024 9.19773 50.8919 9.21412 50.6834 9.24499C 50.5406 9.26087 50.4007 9.29594 50.2677 9.34921L 50.2677 19.0908C 49.8517 19.1724 49.4311 19.2297 49.008 19.2624C 48.6343 19.287 48.3068 19.2992 48.0255 19.2992C 47.7232 19.2992 47.3956 19.2992 47.0114 19.2624C 46.5884 19.2301 46.1677 19.1728 45.7518 19.0908L 45.7518 6.35133C 46.4965 6.11002 47.2533 5.90541 48.0192 5.73827C 49.1238 5.52072 50.2495 5.42203 51.3763 5.444ZM 65.3462 15.4614L 70.3849 15.4614C 70.4679 15.7753 70.5248 16.0951 70.555 16.4178C 70.5849 16.703 70.5996 16.9895 70.5991 17.2761C 70.6058 17.5665 70.5974 17.8571 70.5739 18.1467C 70.5438 18.4755 70.4869 18.8014 70.4038 19.1214L 60.8365 19.1214L 60.8365 5.70149C 61.2289 5.61558 61.6265 5.55415 62.0269 5.51757C 62.4048 5.48691 62.7764 5.46852 63.1291 5.46852C 63.4818 5.46852 63.8345 5.46852 64.225 5.51757C 64.611 5.55346 64.994 5.61491 65.3714 5.70149L 65.3462 15.4614ZM 76.0913 13.8C 76.1508 14.1077 76.2721 14.401 76.4483 14.6629C 76.6244 14.9249 76.852 15.1504 77.1179 15.3266C 77.7077 15.6459 78.3774 15.7988 79.0515 15.768C 79.6332 15.7599 80.213 15.7004 80.7836 15.5902C 81.429 15.4639 82.0614 15.2813 82.6731 15.0446C 82.9398 15.5572 83.1509 16.0955 83.303 16.6508C 83.4923 17.2849 83.596 17.9402 83.6116 18.6003C 82.0585 19.155 80.4161 19.4353 78.7618 19.428C 77.6407 19.4534 76.5243 19.2789 75.4677 18.913C 74.6296 18.6185 73.8746 18.1359 73.2639 17.5043C 72.6533 16.8726 72.2042 16.1097 71.9532 15.2775C 71.668 14.3783 71.5278 13.4414 71.5375 12.5004C 71.5315 11.5586 71.676 10.6217 71.9658 9.72318C 72.2238 8.89565 72.6525 8.128 73.2255 7.46711C 73.8135 6.81341 74.5426 6.29424 75.3607 5.94671C 76.3045 5.55871 77.3217 5.36862 78.3461 5.38882C 79.2097 5.3764 80.0668 5.53491 80.8655 5.85475C 81.5817 6.14921 82.2256 6.58798 82.755 7.14218C 83.2876 7.71315 83.6929 8.38529 83.9454 9.11625C 84.2234 9.92216 84.3617 10.7675 84.3548 11.6175C 84.3582 12.0393 84.3372 12.461 84.2918 12.8805C 84.2477 13.2483 84.2036 13.5548 84.1722 13.8L 76.0913 13.8ZM 78.2201 8.6871C 77.6829 8.67447 77.1606 8.8607 76.7589 9.20821C 76.3128 9.63206 76.0531 10.2079 76.0346 10.8144L 80.3049 10.8144C 80.2877 10.2606 80.0866 9.7272 79.7318 9.29403C 79.5426 9.08913 79.3085 8.92822 79.0469 8.82316C 78.7853 8.71811 78.5027 8.67162 78.2201 8.6871ZM 85.8727 14.7135C 85.8447 13.9743 86.0396 13.2434 86.4333 12.6107C 86.8003 12.065 87.2945 11.6113 87.8756 11.2865C 88.4801 10.9528 89.1381 10.7207 89.8218 10.5999C 90.5072 10.4744 91.203 10.4108 91.9003 10.4098L 93.5253 10.4098C 93.5187 10.1304 93.4266 9.85934 93.2608 9.63122C 93.095 9.42178 92.8786 9.25542 92.6309 9.1469C 92.3688 9.03109 92.091 8.95263 91.8059 8.91394C 91.4971 8.87155 91.1855 8.85106 90.8737 8.85263C 90.3728 8.85722 89.8734 8.9044 89.381 8.99363C 88.7826 9.09391 88.1945 9.24573 87.6237 9.4473C 87.4599 9.15303 87.3214 8.88328 87.208 8.64419C 87.0938 8.40646 87.0051 8.15786 86.9435 7.90238C 86.8804 7.64596 86.8342 7.38591 86.8049 7.12379C 86.7797 6.85404 86.7671 6.54751 86.7671 6.2042C 87.5902 5.93942 88.4323 5.73451 89.2865 5.59113C 90.0395 5.46243 90.802 5.39272 91.5665 5.38269C 92.418 5.37202 93.2666 5.48146 94.0859 5.70762C 94.7823 5.90449 95.4268 6.24535 95.9754 6.70691C 96.5147 7.18207 96.9312 7.77441 97.191 8.43575C 97.4912 9.23647 97.6344 10.0849 97.613 10.937L 97.613 18.5513C 96.9391 18.7413 96.1203 18.9314 95.1629 19.1214C 94.1611 19.3144 93.142 19.4088 92.1208 19.4034C 91.2744 19.4095 90.4298 19.3273 89.6014 19.1582C 88.9027 19.0252 88.2361 18.7652 87.6363 18.3919C 87.0737 18.0236 86.6199 17.5185 86.3199 16.9267C 85.994 16.2335 85.8408 15.4752 85.8727 14.7135ZM 92.1712 16.1665C 92.4029 16.1639 92.6343 16.1475 92.864 16.1174C 93.0884 16.0951 93.3113 16.0603 93.5316 16.0132L 93.5316 13.1747L 91.9885 13.1747C 91.4358 13.1559 90.8893 13.2921 90.4139 13.5671C 90.2179 13.6771 90.056 13.8366 89.9451 14.0286C 89.8343 14.2206 89.7787 14.4381 89.7841 14.6583C 89.7678 14.9495 89.8545 15.2372 90.0297 15.4737C 90.1878 15.6705 90.3933 15.8263 90.628 15.9274C 90.8747 16.0326 91.1356 16.1028 91.4028 16.1358C 91.6553 16.1695 91.91 16.1859 92.1649 16.1849L 92.1712 16.1665ZM 107.155 10.6918C 107.655 10.8183 108.142 10.9886 108.61 11.2007C 109.029 11.3875 109.409 11.6472 109.731 11.967C 110.054 12.2934 110.303 12.6818 110.462 13.1073C 110.651 13.6307 110.741 14.1833 110.726 14.738C 110.733 15.3732 110.593 16.0017 110.317 16.5772C 110.024 17.1606 109.592 17.6672 109.057 18.0547C 108.475 18.5043 107.813 18.847 107.105 19.0663C 106.218 19.3221 105.296 19.4441 104.371 19.428C 103.576 19.4345 102.782 19.3751 101.997 19.2502C 101.207 19.1149 100.431 18.9097 99.6789 18.6371C 99.7848 17.3963 100.118 16.1838 100.661 15.0568C 101.233 15.3156 101.833 15.511 102.45 15.6392C 103.071 15.7698 103.704 15.8356 104.34 15.8354C 104.554 15.8354 104.774 15.8354 105.007 15.8354C 105.222 15.8243 105.434 15.7852 105.637 15.7189C 105.801 15.6668 105.951 15.5811 106.078 15.4676C 106.138 15.4166 106.184 15.3531 106.215 15.282C 106.245 15.2108 106.259 15.1338 106.254 15.0568C 106.255 14.9482 106.222 14.842 106.16 14.7515C 106.098 14.661 106.011 14.5902 105.908 14.548C 105.65 14.428 105.383 14.3296 105.108 14.2537L 103.294 13.7571C 102.403 13.5295 101.591 13.072 100.945 12.4329C 100.624 12.0899 100.377 11.6884 100.217 11.2517C 100.057 10.815 99.9876 10.3517 100.013 9.88871C 100.005 9.25141 100.152 8.62134 100.441 8.04952C 100.728 7.49544 101.139 7.01137 101.644 6.63334C 102.19 6.22951 102.807 5.92617 103.464 5.73827C 104.223 5.52223 105.01 5.41686 105.801 5.42561C 106.543 5.4339 107.282 5.50363 108.012 5.63405C 108.818 5.77836 109.612 5.98333 110.386 6.24711C 110.34 6.84852 110.224 7.44288 110.04 8.01886C 109.869 8.59699 109.646 9.15915 109.372 9.69866C 108.81 9.48139 108.23 9.30716 107.64 9.17755C 107.022 9.02932 106.388 8.95115 105.751 8.94459C 104.913 8.94459 104.491 9.16529 104.491 9.61896C 104.49 9.71199 104.517 9.8033 104.568 9.88171C 104.62 9.96011 104.693 10.0222 104.781 10.0604C 104.993 10.1703 105.216 10.2566 105.448 10.3178L 107.155 10.6918ZM 121.503 14.1434L 117.554 14.1434L 117.554 19.0479C 117.094 19.1214 116.672 19.1705 116.294 19.2073C 115.916 19.244 115.582 19.2563 115.28 19.2563C 114.978 19.2563 114.65 19.2563 114.266 19.2073C 113.882 19.1582 113.485 19.1214 113.044 19.0479L 113.044 5.70149C 113.426 5.61685 113.813 5.55542 114.203 5.51757C 114.587 5.48691 114.953 5.46852 115.312 5.46852C 115.671 5.46852 116.011 5.46852 116.401 5.51757C 116.787 5.55346 117.17 5.61491 117.548 5.70149L 117.548 10.2688L 121.497 10.2688L 121.497 5.70149C 121.879 5.61685 122.266 5.55542 122.656 5.51757C 123.033 5.48691 123.405 5.46852 123.758 5.46852C 124.11 5.46852 124.463 5.46852 124.854 5.51757C 125.24 5.55346 125.623 5.61491 126 5.70149L 126 19.0908C 125.54 19.1643 125.118 19.2134 124.74 19.2502C 124.362 19.287 124.029 19.2992 123.726 19.2992C 123.424 19.2992 123.096 19.2992 122.712 19.2502C 122.328 19.2011 121.931 19.1643 121.49 19.0908L 121.503 14.1434ZM 10.9971 16.5159C 14.5557 19.2318 18.6622 16.4607 22.0004 12.0896L 22.0004 8.61353C 19.4117 14.266 15.4248 18.68 11.0033 16.5527C 17.5033 18.3122 21.3706 8.23344 21.9752 0L 19.2039 0C 19.6133 7.83494 17.2388 16.9205 11.0159 16.5527C 16.8672 15.8538 18.0954 7.39354 16.7853 0L 14.2092 0C 16.4956 6.79887 16.4074 14.7564 11.0978 16.5527C 14.7257 12.0099 10.953 4.64089 5.54261 0L 0.0314921 0C 7.23689 2.83235 14.077 10.5569 11.0789 16.4853C 12.7417 10.7593 6.67633 5.02712 0.0314921 2.84461L 0.0314921 5.61566C 6.03389 6.97053 11.4568 11.1332 11.1104 16.4669C 8.84929 12.5433 4.4026 11.311 0.0314921 12.0957L 0.0314921 14.266C 3.86093 12.7394 8.09978 13.1257 11.0789 16.4178L 11.0348 16.4178C 6.24804 15.1181 2.97916 17.3987 1.37936 21.1752L 1.37936 21.2181C 1.61334 21.6136 1.87868 21.9908 2.17296 22.3461C 2.45022 22.6847 2.75341 23.0024 3.07993 23.2964C 3.51452 19.1276 5.92682 16.1052 11.0159 16.424L 10.9782 16.424C 10.9749 16.4402 10.9749 16.4568 10.9782 16.473C 13.2015 20.2985 17.623 19.1582 22.0004 16.2584C 22.0035 16.2053 22.0035 16.1521 22.0004 16.099L 22.0004 14.2598C 18.1521 17.8953 13.9195 19.7835 10.9845 16.5527L 10.9971 16.5159ZM 10.9593 16.5159C 11.5387 21.1813 16.124 21.4204 21.2887 19.992C 21.5412 19.3727 21.7269 18.7297 21.8429 18.0731C 17.0372 20.3169 12.4583 20.8441 10.9593 16.5159ZM 10.9593 16.473C 9.6051 21.2181 13.6298 22.9776 18.8701 23.3761C 19.4504 22.871 19.9626 22.2962 20.3943 21.6656C 15.0595 22.2664 10.6191 21.2978 10.9467 16.473L 10.9593 16.473ZM 10.9593 16.473C 7.81005 20.3721 10.3294 23.3761 14.5809 25.5954C 15.4359 25.3731 16.2606 25.052 17.0372 24.639C 12.1308 23.3393 8.73592 20.9116 10.9719 16.473L 10.9593 16.473ZM 10.9593 16.4362C 5.90792 17.0125 4.44039 20.4334 5.03244 24.6267C 5.78716 25.0258 6.58868 25.3346 7.41954 25.5463C 5.71897 21.6105 6.15986 18.0179 10.9782 16.424C 6.56926 18.8762 7.06683 22.4075 9.66808 25.9387C 10.1153 25.9755 10.5814 26 11.0537 26C 11.5261 26 11.8536 26 12.2378 25.951C 8.71702 23.0328 7.16131 19.6732 10.9782 16.424L 10.9593 16.4362ZM 11.0348 16.4362C 7.43844 13.6529 3.33187 14.1004 0.0314921 16.3933C 0.0464007 17.2612 0.171212 18.1239 0.403099 18.962C 2.92247 15.7802 6.73302 14.3334 11.0537 16.4056L 11.0348 16.4362ZM 11.0726 16.4362C 10.4428 11.4949 5.45444 8.4664 -4.69271e-10 7.85334L -4.69271e-10 10.1278C 4.86238 10.0052 9.51692 12.0283 11.0537 16.424L 11.0726 16.4362Z"/>
</defs>
</svg>
